# xmcd
#
# Track frame offsets:
#   150
#   15707
#   29422
#   47923
#   61338
#   76407
#   89738
#   103576
#   119821
#   131866
#   146027
#   158799
#   172389
#   189565
#   204553
#
# Disc length: 2893 seconds
#
# Revision: 0
# Processed by: cddbd v1.5.1PL0 Copyright (c) Steve Scherf et al.
# Submitted via: uFREEDB ActiveX Control 1.5
#
DISCID=e60b4b0f
DTITLE=Ternura - Exitos
DYEAR=1900
DGENRE=UnClassifiable
TTITLE0=Corazon flechado
TTITLE1=Sexo
TTITLE2=Un idiota
TTITLE3=De aqui pa ya
TTITLE4=Vienes y te vas
TTITLE5=Tu linda boca
TTITLE6=Soy soltero
TTITLE7=Haciendo el amor
TTITLE8=Si tu no estas
TTITLE9=Chica tu
TTITLE10=El duende
TTITLE11=Como decirte
TTITLE12=Pobre Corazon
TTITLE13=El calor de tu piel
TTITLE14=Tan solo yo te quise
EXTD=
EXTT0=
EXTT1=
EXTT2=
EXTT3=
EXTT4=
EXTT5=
EXTT6=
EXTT7=
EXTT8=
EXTT9=
EXTT10=
EXTT11=
EXTT12=
EXTT13=
EXTT14=
PLAYORDER=
